<svg xmlns="http://www.w3.org/2000/svg" xmlns:xlink="http://www.w3.org/1999/xlink" xml:space="preserve" version="1.1" style="shape-rendering:geometricPrecision;text-rendering:geometricPrecision;image-rendering:optimizeQuality;" viewBox="0 0 816.92 1056.5625" x="0px" y="0px" fill-rule="evenodd" clip-rule="evenodd"><defs><style type="text/css">
   
    .fil0 {fill:black;fill-rule:nonzero}
   
  </style></defs><g><path class="fil0" d="M20 825.25l776.92 0 0 -559.33 -388.44 -244.16 -388.49 244.16 0 559.33zm388.49 20l-398.49 0c-5.52,0 -10,-4.48 -10,-10l0 -574.82c0.03,-3.31 1.68,-6.55 4.69,-8.44l398.35 -250.36c3.16,-2.06 7.36,-2.23 10.76,-0.09l397.79 250.04c3.18,1.68 5.34,5.01 5.34,8.85l0 574.82c0,5.52 -4.48,10 -10,10l-398.44 0z"/></g><text x="0" y="860.25" fill="#000000" font-size="5px" font-weight="bold" font-family="'Helvetica Neue', Helvetica, Arial-Unicode, Arial, Sans-serif">Created by emkamal kamaluddin</text><text x="0" y="865.25" fill="#000000" font-size="5px" font-weight="bold" font-family="'Helvetica Neue', Helvetica, Arial-Unicode, Arial, Sans-serif">from the Noun Project</text></svg>